<?xml version="1.0" encoding="utf-8"?>
<!-- Generator: Adobe Illustrator 23.0.6, SVG Export Plug-In . SVG Version: 6.00 Build 0)  -->
<svg version="1.1" id="Layer_1" xmlns="http://www.w3.org/2000/svg" xmlns:xlink="http://www.w3.org/1999/xlink" x="0px" y="0px"
	 viewBox="0 0 32 32" style="enable-background:new 0 0 32 32;" xml:space="preserve">
<style type="text/css">
	.st0{fill:#FFFFFF;}
</style>
<path class="st0" d="M25.9,23.1l-17-17c-0.8-0.8-2.1-0.8-2.8,0s-0.8,2.1,0,2.8l17,17c0.8,0.8,2.1,0.8,2.8,0
	C26.7,25.1,26.7,23.8,25.9,23.1z"/>
<path class="st0" d="M23.1,6.1l-17,17c-0.8,0.8-0.8,2.1,0,2.8c0.8,0.8,2.1,0.8,2.8,0l17-17c0.8-0.8,0.8-2.1,0-2.8
	C25.1,5.3,23.8,5.3,23.1,6.1z"/>
</svg>
