<?xml version="1.0" encoding="utf-8"?>
<!-- Generator: Adobe Illustrator 23.0.6, SVG Export Plug-In . SVG Version: 6.00 Build 0)  -->
<svg version="1.1" id="Layer_1" xmlns="http://www.w3.org/2000/svg" xmlns:xlink="http://www.w3.org/1999/xlink" x="0px" y="0px"
	 viewBox="0 0 1000 1000" style="enable-background:new 0 0 1000 1000;" xml:space="preserve">
<style type="text/css">
	.st0{fill:#FFFFFF;}
	.st1{fill:#F88379;}
</style>
<g>
	<g id="Cirkel">
		<path class="st0" d="M500.1,964c-62.6,0-123.4-12.3-180.6-36.5c-55.3-23.4-104.9-56.8-147.5-99.4c-42.6-42.6-76.1-92.2-99.4-147.5
			c-24.2-57.2-36.5-118-36.5-180.6s12.3-123.4,36.5-180.6C96,264.1,129.4,214.5,172,171.9s92.2-76.1,147.5-99.4
			C376.7,48.3,437.5,36,500.1,36s123.4,12.3,180.6,36.5c55.3,23.4,104.9,56.8,147.5,99.4s76.1,92.2,99.4,147.5
			c24.2,57.2,36.5,118,36.5,180.6s-12.3,123.4-36.5,180.6c-23.4,55.3-56.8,104.9-99.4,147.5s-92.2,76.1-147.5,99.4
			C623.5,951.7,562.7,964,500.1,964z"/>
		<path class="st1" d="M500.1,38.5c62.3,0,122.7,12.2,179.6,36.3c55,23.2,104.3,56.5,146.7,98.9s75.7,91.7,98.9,146.7
			c24.1,56.9,36.3,117.3,36.3,179.6s-12.2,122.7-36.3,179.6c-23.2,55-56.5,104.3-98.9,146.7s-91.7,75.7-146.7,98.9
			c-56.9,24.1-117.3,36.3-179.6,36.3s-122.7-12.2-179.6-36.3c-55-23.2-104.3-56.5-146.7-98.9s-75.7-91.7-98.9-146.7
			C50.8,622.7,38.6,562.3,38.6,500s12.2-122.7,36.3-179.6c23.2-55,56.5-104.3,98.9-146.7S265.5,98,320.5,74.8
			C377.4,50.7,437.8,38.5,500.1,38.5 M500.1,33.5C242.5,33.5,33.6,242.4,33.6,500s208.9,466.5,466.5,466.5S966.6,757.6,966.6,500
			S757.7,33.5,500.1,33.5L500.1,33.5z"/>
	</g>
	<path id="Logo" class="st1" d="M542.8,361c-0.1,19,0.2,38.1-0.2,57.1c-0.1,5.4,1.3,7.3,7.1,7.2c25.9-0.3,51.9-0.1,77.8-0.1
		c2.4,0,4.8,0,8.3,0c-0.7,6.6-1.1,12.5-1.9,18.4c-3.1,24.5-6.5,48.9-9.5,73.4c-0.7,5.7-2.6,8.2-9,8.1c-21.7-0.4-43.4,0-65.1-0.2
		c-5.6-0.1-7.8,1.2-7.7,7.3c0.2,67.2,0.2,134.5,0.2,201.7l0,0v32.2c-33.3,0-66.6,0-99.9,0v-73.7c0-53.2,0-106.4,0.2-159.6
		c0-6.1-1.5-8.1-7.8-7.9c-21.5,0.4-43,0.1-64.5,0.1c-2.6,0-5.2-0.3-8.5-0.4c0-2.3,0-4.3,0-6.3c0-28.6,0.2-57.1-0.1-85.8
		c-0.1-6.1,1.9-7.4,7.6-7.3c21.9,0.3,43.8-0.2,65.7,0.3c6.5,0.2,7.7-2,7.6-8c-0.3-23.5-0.2-47-0.1-70.6c0.2-28.8,8.6-54.6,28.2-76.2
		c21.2-23.5,48-35.6,79.4-36.4c27.2-0.7,54.4-0.1,81.5-0.3c4.6,0,5.9,1.6,5.8,6c-0.1,25.9-0.1,51.9,0,77.8c0,4.7-1.6,5.8-6,5.8
		c-17.6-0.2-35.2-0.2-52.9-0.1c-18,0.1-31.1,9.8-35.2,25.9C542.9,353.2,542.8,357.1,542.8,361z"/>
</g>
</svg>
