<?xml version="1.0" encoding="utf-8"?>
<!-- Generator: Adobe Illustrator 23.0.6, SVG Export Plug-In . SVG Version: 6.00 Build 0)  -->
<svg version="1.1" id="Layer_1" xmlns="http://www.w3.org/2000/svg" xmlns:xlink="http://www.w3.org/1999/xlink" x="0px" y="0px"
	 viewBox="0 0 1000 1000" style="enable-background:new 0 0 1000 1000;" xml:space="preserve">
<style type="text/css">
	.st0{fill:#F88379;}
	.st1{fill:#FFFFFF;}
</style>
<g>
	<g id="Cirkel">
		<path class="st0" d="M500,964c-62.6,0-123.4-12.3-180.6-36.5c-55.3-23.4-104.9-56.8-147.5-99.4c-42.6-42.6-76.1-92.2-99.4-147.5
			C48.3,623.4,36,562.6,36,500s12.3-123.4,36.5-180.6c23.4-55.3,56.8-104.9,99.4-147.5s92.2-76.1,147.5-99.4
			C376.6,48.3,437.4,36,500,36s123.4,12.3,180.6,36.5c55.3,23.4,104.9,56.8,147.5,99.4s76.1,92.2,99.4,147.5
			c24.2,57.2,36.5,118,36.5,180.6s-12.3,123.4-36.5,180.6c-23.4,55.3-56.8,104.9-99.4,147.5s-92.2,76.1-147.5,99.4
			C623.4,951.7,562.6,964,500,964z"/>
		<path class="st1" d="M500,38.5c62.3,0,122.7,12.2,179.6,36.3c55,23.2,104.3,56.5,146.7,98.9s75.7,91.7,98.9,146.7
			c24.1,56.9,36.3,117.3,36.3,179.6s-12.2,122.7-36.3,179.6c-23.2,55-56.5,104.3-98.9,146.7s-91.7,75.7-146.7,98.9
			c-56.9,24.1-117.3,36.3-179.6,36.3s-122.7-12.2-179.6-36.3c-55-23.2-104.3-56.5-146.7-98.9S98,734.6,74.8,679.6
			C50.7,622.7,38.5,562.3,38.5,500s12.2-122.7,36.3-179.6c23.2-55,56.5-104.3,98.9-146.7S265.4,98,320.4,74.8
			C377.3,50.7,437.7,38.5,500,38.5 M500,33.5C242.4,33.5,33.5,242.4,33.5,500S242.4,966.5,500,966.5S966.5,757.6,966.5,500
			S757.6,33.5,500,33.5L500,33.5z"/>
	</g>
	<path id="Logo" class="st1" d="M370.2,234c86.6,0,173.1,0,259.7,0c4.1,0.5,8.2,0.4,12.4,0.9c16.6,2,32.4,6.7,47.4,14.2
		c17,8.6,31.3,20.3,43.6,34.5c8.2,9.6,14.9,20.2,20.2,31.6c8.5,18.3,12.8,37.6,12.8,57.8c0.1,82.3,0,164.5,0,246.8
		c0,6.7,0,13.4-0.7,20.1c-1.3,14-4.8,27.5-10.3,40.4c-5.7,13.6-13.3,26-23.1,37.1c-5.2,6-10.9,11.5-17,16.6
		c-9.9,8.2-20.7,14.9-32.5,20c-17.2,7.5-35.2,11.6-53.9,11.8c-18.2,0.2-36.2-0.2-54.4-0.1c-57.5,0.1-115.1-0.4-172.7,0.2
		c-10.2,0.1-20.4,0.1-30.6,0c-7.3-0.1-14.6-0.8-21.8-2.1c-14.8-2.6-28.9-7.6-42.1-14.7c-16.1-8.6-29.9-20.3-41.5-34.3
		c-10.7-12.8-18.8-27.2-24.2-43c-4.6-13.5-7.6-27.4-7.6-41.8c-0.2-85.4-0.1-170.8-0.1-256.1c0-5.5,0.4-11.1,1-16.6
		c2-17.5,7.3-34,15.5-49.6c8.9-16.6,20.9-30.8,35.3-42.7c9.5-7.9,20.1-14.3,31.4-19.2c13.7-6.1,28-9.8,43-11.3
		C363.5,234.2,366.9,234.4,370.2,234z M503.9,288.2c-32.6,0-65.2,0-97.8,0c-2.8,0-5.7,0.1-8.5,0.3c-15.8,1.4-30.6,5.9-44.6,13.2
		c-13.4,7-25,16.3-35,27.6c-11.1,12.6-19.1,26.9-24.2,42.9c-4,12.3-5.5,25-5.5,37.9c0,62.6,0,125.1,0,187.6
		c0,15.3,2.5,30.1,8.1,44.4c6,15.4,14.9,29.1,26.4,40.9c9.9,10.1,21.3,18.3,34,24.4c16.4,7.8,33.7,11.8,51.8,11.8
		c29.8,0,59.7,0,89.5,0c33.9,0,67.9,0,101.8,0c7.8,0,15.5-0.8,23-2.4c24.5-5.2,45.4-16.6,62.8-34.6c10.9-11.3,19.3-24.2,25.1-38.8
		c5.2-13.1,8.5-26.7,8.5-40.8c0.2-65.5,0.1-131.1,0.1-196.6c0-5.7-0.7-11.3-1.6-16.9c-2.2-13.1-6.4-25.5-12.7-37.3
		c-5.2-9.7-11.6-18.5-19.2-26.4c-11.1-11.5-24-20.7-38.7-27.1c-14.2-6.2-29.1-9.9-44.7-10C569.7,288.1,536.7,288.2,503.9,288.2z
		 M688.5,504.8c0,32.2,0.1,64.6,0,96.8c-0.1,12.3-3.1,24-8.3,35.2c-4.6,9.8-10.7,18.6-18.5,26.1c-14.5,13.9-31.8,22.4-51.8,24.9
		c-4.3,0.5-8.5,0.7-12.8,0.7c-63,0-125.9,0.1-188.9-0.1c-21,0-39.8-6.8-56.1-20c-14.7-11.9-24.6-27.1-29.9-45.2
		c-2-7-3.1-14-3.3-21.2c-0.6-34.3-0.2-68.7-0.3-103c-0.1-29,0-58,0-87c0-10.3,1.1-20.5,4.3-30.3c4-12.8,10.7-24.2,19.8-34.1
		c11.9-12.8,26.2-21.4,43-25.9c6.6-1.8,13.3-2.8,20.2-2.8c65.6,0,131.2-0.1,196.8,0.1c10.9,0,21.5,2.8,31.6,7.1
		c13.3,5.7,24.5,14.1,33.7,25.2c10.6,12.8,17.2,27.5,19.8,44c0.6,3.8,0.8,7.6,0.8,11.5C688.5,439.4,688.5,472.1,688.5,504.8z
		 M617.3,527.3c0.4-72.6-49.7-123.1-111.3-123.7c-63-0.5-111.8,49.4-113.6,108.3c-1,32.7,10,60.9,33.1,84
		c21.8,21.8,48.6,32.9,79.4,32.8c30.8-0.1,57.6-11.1,79.4-33C606.2,573.9,616.9,547.2,617.3,527.3z M622.3,365.5
		c-10.3-0.5-20.2,8.3-20.2,20c0.1,12.1,9.8,20.2,20,20.2c11.1,0,20.2-9.1,20.2-20.1C642.4,374.2,632.9,365.1,622.3,365.5z
		 M504,434.4c-45.4,0.3-82.6,37.3-81.1,84.7c1.3,42.7,35.5,78.8,81.6,79.1c45.8,0.2,82-36.5,82.2-81.7
		C586.8,471.7,551.1,434,504,434.4z"/>
</g>
</svg>
