<?xml version="1.0" encoding="utf-8"?>
<!-- Generator: Adobe Illustrator 23.0.6, SVG Export Plug-In . SVG Version: 6.00 Build 0)  -->
<svg version="1.1" id="Layer_1" xmlns="http://www.w3.org/2000/svg" xmlns:xlink="http://www.w3.org/1999/xlink" x="0px" y="0px"
	 viewBox="0 0 1000 1000" style="enable-background:new 0 0 1000 1000;" xml:space="preserve">
<style type="text/css">
	.st0{fill:#F88379;}
	.st1{fill:#FFFFFF;}
</style>
<g>
	<g id="Cirkel">
		<path class="st0" d="M513.2,964c-62.6,0-123.4-12.3-180.6-36.5c-55.3-23.4-104.9-56.8-147.5-99.4c-42.6-42.6-76.1-92.2-99.4-147.5
			c-24.2-57.2-36.5-118-36.5-180.6s12.3-123.4,36.5-180.6c23.4-55.3,56.8-104.9,99.4-147.5s92.2-76.1,147.5-99.4
			C389.8,48.3,450.6,36,513.2,36s123.4,12.3,180.6,36.5c55.3,23.4,104.9,56.8,147.5,99.4s76.1,92.2,99.4,147.5
			c24.2,57.2,36.5,118,36.5,180.6s-12.3,123.4-36.5,180.6c-23.4,55.3-56.8,104.9-99.4,147.5s-92.2,76.1-147.5,99.4
			C636.6,951.7,575.9,964,513.2,964z"/>
		<path class="st1" d="M513.2,38.5c62.3,0,122.7,12.2,179.6,36.3c55,23.2,104.3,56.5,146.7,98.9s75.7,91.7,98.9,146.7
			c24.1,56.9,36.3,117.3,36.3,179.6s-12.2,122.7-36.3,179.6c-23.2,55-56.5,104.3-98.9,146.7s-91.7,75.7-146.7,98.9
			c-56.9,24.1-117.3,36.3-179.6,36.3s-122.7-12.2-179.6-36.3c-55-23.2-104.3-56.5-146.7-98.9S111.2,734.6,88,679.6
			C63.9,622.7,51.7,562.3,51.7,500S63.9,377.3,88,320.4c23.2-55,56.5-104.3,98.9-146.7S278.6,98,333.6,74.8
			C390.5,50.7,450.9,38.5,513.2,38.5 M513.2,33.5C255.6,33.5,46.7,242.4,46.7,500s208.9,466.5,466.5,466.5S979.7,757.6,979.7,500
			S770.9,33.5,513.2,33.5L513.2,33.5z"/>
	</g>
	<path id="Logo" class="st1" d="M746.9,733.8c-32.8,0-64.9,0-97.9,0c0-2.7,0-5.2,0-7.7c0-53.9,0.1-107.8,0-161.7
		c0-25.1-13.3-43.6-36-50.7c-27.2-8.5-58.7,12.4-61.5,40.8c-0.4,4.2-0.5,8.5-0.5,12.8c0,52.8,0,105.7,0,158.5c0,2.5,0,5,0,7.9
		c-32.8,0-65,0-97.6,0c0-97.7,0-195.5,0-293.6c32.4,0,64.6,0,97.7,0c0,12.3,0,24.3,0,35.5c9.6-8.3,18.4-17.6,28.8-24.8
		c38.7-26.5,82.1-21.7,117.2,2.9c32.5,22.6,49.9,54.3,50.1,94.2c0.4,60.5,0.1,121,0.1,181.5C747.2,730.7,747,731.9,746.9,733.8z
		 M386.9,440.2c-32.8,0-65,0-97.2,0c0,98.1,0,195.8,0,293.6c32.5,0,64.6,0,97.2,0C386.9,635.4,386.9,537.8,386.9,440.2z
		 M338.1,266.1c-32.3,0.1-59.1,27-58.9,59.1c0.3,32.3,26.2,58.3,58.7,58.5c32.5,0.2,59-26,59-58.6
		C397,292.7,370.4,266.1,338.1,266.1z"/>
</g>
</svg>
