<?xml version="1.0" encoding="utf-8"?>
<!-- Generator: Adobe Illustrator 23.0.6, SVG Export Plug-In . SVG Version: 6.00 Build 0)  -->
<svg version="1.1" id="Layer_1" xmlns="http://www.w3.org/2000/svg" xmlns:xlink="http://www.w3.org/1999/xlink" x="0px" y="0px"
	 viewBox="0 0 1000 1000" style="enable-background:new 0 0 1000 1000;" xml:space="preserve">
<style type="text/css">
	.st0{fill:#F88379;}
	.st1{fill:#FFFFFF;}
</style>
<g>
	<g id="Cirkel">
		<path class="st0" d="M500,964c-62.6,0-123.4-12.3-180.6-36.5c-55.3-23.4-104.9-56.8-147.5-99.4c-42.6-42.6-76.1-92.2-99.4-147.5
			C48.3,623.4,36,562.6,36,500s12.3-123.4,36.5-180.6c23.4-55.3,56.8-104.9,99.4-147.5s92.2-76.1,147.5-99.4
			C376.6,48.3,437.4,36,500,36s123.4,12.3,180.6,36.5c55.3,23.4,104.9,56.8,147.5,99.4s76.1,92.2,99.4,147.5
			c24.2,57.2,36.5,118,36.5,180.6s-12.3,123.4-36.5,180.6c-23.4,55.3-56.8,104.9-99.4,147.5s-92.2,76.1-147.5,99.4
			C623.4,951.7,562.6,964,500,964z"/>
		<path class="st1" d="M500,38.5c62.3,0,122.7,12.2,179.6,36.3c55,23.2,104.3,56.5,146.7,98.9s75.7,91.7,98.9,146.7
			c24.1,56.9,36.3,117.3,36.3,179.6s-12.2,122.7-36.3,179.6c-23.2,55-56.5,104.3-98.9,146.7s-91.7,75.7-146.7,98.9
			c-56.9,24.1-117.3,36.3-179.6,36.3s-122.7-12.2-179.6-36.3c-55-23.2-104.3-56.5-146.7-98.9S98,734.6,74.8,679.6
			C50.7,622.7,38.5,562.3,38.5,500s12.2-122.7,36.3-179.6c23.2-55,56.5-104.3,98.9-146.7S265.4,98,320.4,74.8
			C377.3,50.7,437.7,38.5,500,38.5 M500,33.5C242.4,33.5,33.5,242.4,33.5,500S242.4,966.5,500,966.5S966.5,757.6,966.5,500
			S757.6,33.5,500,33.5L500,33.5z"/>
	</g>
	<path id="Logo" class="st1" d="M408.5,766c1.9-3.1,3.3-5.3,4.6-7.6c12-20.2,22.6-41.2,28.7-64.1c5.1-19.3,10-38.6,14.9-58
		c2.5-9.5,4.9-19.1,7.3-28.7c0.8,0.3,1.2,0.4,1.3,0.6c13.8,20.5,33.9,31.5,57.3,36c35.8,7,69.5-0.4,100.8-18.4
		c36.2-20.8,60-52.6,76.2-90.5c12.7-29.6,19.1-60.7,21-92.8c1.4-22.2,0.9-44.3-5.5-65.9c-19.5-65.8-63.2-108.3-127-130.5
		c-45.3-15.8-91.8-15.4-138.1-5c-59.5,13.4-107.7,44.5-140.3,96.8C277.4,390,270,445.5,290.6,503.5c9.5,26.9,26.9,47.8,53.6,59.8
		c10.7,4.8,16.7,2,19.6-9.2c2-7.4,3.3-15.1,5.8-22.4c2.7-8.1,1-14.5-4.6-20.8c-10-11.3-16.7-24.6-18.8-39.5
		c-8.4-56.6,7.6-105.4,51-142.7c46.9-40.3,102.2-47.2,160.1-30.4c48.7,14.2,76.2,48.9,82.3,99c4.3,35.4-0.8,70.4-11.6,104.3
		c-7.3,23.3-18,44.9-35.2,62.6c-16,16.5-35,26.2-58.7,25.3c-33.9-1.3-56.4-30.1-48.2-63c5.8-23.1,13.2-45.8,19.7-68.6
		c4.9-17.4,10.2-35,8.6-53.3c-3.4-41.3-38.3-49.9-63.8-39.3c-17.2,7.3-28.2,20.9-35.2,37.7c-12.5,30.4-10.7,61,0.2,91.4
		c0.8,2.3,1.2,5.2,0.6,7.6c-11.5,49.4-23.1,98.6-34.8,147.9c-5.6,23.3-11.5,46.6-11.9,70.8c-0.1,9.9,0,19.7,0,30.5"/>
</g>
</svg>
